<svg xmlns="http://www.w3.org/2000/svg" version="1.1" xmlns:xlink="http://www.w3.org/1999/xlink" xmlns:svgjs="http://svgjs.dev/svgjs" viewBox="0 0 6.703314247452452 5.262534857135021"><g transform="matrix(1,0,0,1,2.1645318506476547,1.951137661890561)"><rect width="6.703314247452452" height="6.703314247452452" x="-2.1645318506476547" y="-2.6715273570492766" fill="#202020"></rect><g><path d=" M -1.5052385455077824 0.7140575822401449 Q -1.4309038280763073 0.6507677743372704 -1.3215178867808541 0.6696282050563092 Q -1.2131174044159905 0.6883187219850863 -1.1642697555237569 0.772847753670662 Q -1.1154221066315235 0.8573767853562378 -1.137850726946056 0.987457364194074 L -1.171833484998378 1.1845491503120078 L -0.9461633898933439 1.2234594082819166 L -0.9548289931966861 1.2737178137419898 L -1.6446502446094542 1.1547781605588625 L -1.6020018832537901 0.9074279689808556 Q -1.5795732629392574 0.7773473901430195 -1.5052385455077824 0.7140575822401449 M -1.2024140672173391 0.8028020769883878 Q -1.240676641190798 0.7363342243607784 -1.3303534038744578 0.7208720694469719 Q -1.4200301665581176 0.7054099145331654 -1.4788352972477412 0.755141258820006 Q -1.5376404279373648 0.8048726031068468 -1.5566707724466653 0.9152440033328897 L -1.5906535304989873 1.1123357894508235 L -1.2171645958055028 1.1767331159599739 L -1.1831818377531809 0.9796413298420401 Q -1.1641514932438803 0.8692699296159971 -1.2024140672173391 0.8028020769883878 M -0.5415708546899942 0.1343972022149853 L -0.8276242469206255 0.16300588609503497 Q -0.8416754200782264 0.19759728000876897 -0.8570831400699028 0.22449713437004937 L -0.9564877851774927 0.3980445818621808 L -0.7577759577990022 0.5118629005103712 L -0.7831241423014377 0.5561174996208647 L -1.3905402085238976 0.20820124174430021 L -1.2657873789138723 -0.009600804858324707 Q -1.200180313142863 -0.12414212020313142 -1.1086699938862257 -0.15815846141655898 Q -1.0171596746295886 -0.19217480262998643 -0.9208408412714555 -0.1370052245952741 Q -0.848818650562221 -0.09575229687562425 -0.8209149837310568 -0.03079165204065215 Q -0.7930113168998925 0.03416899279431984 -0.8123181952557953 0.11415176874108468 L -0.5127435076087932 0.08406844244226719 L -0.5415708546899942 0.1343972022149853 M -0.8961313157556324 0.20213108922084166 Q -0.8404647144953821 0.104944518625248 -0.8540933374429456 0.0291453719509408 Q -0.8677219603905091 -0.046653774723366515 -0.9466860489994289 -0.09188288824731994 Q -1.0256501376083487 -0.13711200177127325 -1.0979275011693903 -0.11051815442522295 Q -1.1702048647304317 -0.08392430707917264 -1.2258714659906822 0.013262263516420902 L -1.325276111098272 0.18680971100855237 L -0.9955359608632223 0.3756785367129731 L -0.8961313157556324 0.20213108922084166 M -0.3106661906268339 -0.17847893798832926 Q -0.40459926020150927 -0.16338495109688156 -0.4921306026874521 -0.19737780450180442 Q -0.579661945173395 -0.23137065790672728 -0.6417604249105867 -0.30975291874634325 Q -0.7038589046477783 -0.38813517958595917 -0.7169270993360861 -0.48112158874121413 Q -0.7299952940243937 -0.5741079978964692 -0.6938138106053067 -0.6620974873687596 Q -0.6576323271862196 -0.7500869768410502 -0.5768985985214151 -0.8140484109703576 Q -0.4961648698566107 -0.8780098450996651 -0.4025422926806213 -0.8934957432953109 Q -0.30891971550463193 -0.9089816414909566 -0.22138837301868908 -0.8749887880860338 Q -0.13385703053274617 -0.8409959346811109 -0.0711375659981826 -0.7618298512330988 Q -0.008418101463618932 -0.6826637677850866 0.004650093224688734 -0.5896773586298317 Q 0.0177182879129964 -0.4966909494745767 -0.018773687904776626 -0.40909337130648427 Q -0.05526566372254965 -0.3214957931383918 -0.1359993923873541 -0.2575343590090844 Q -0.21673312105215853 -0.19357292487977693 -0.3106661906268339 -0.17847893798832926 M -0.0653972750237215 -0.4244635087216851 Q -0.034585261722470895 -0.49990633367093756 -0.0462279629929484 -0.5806262042551154 Q -0.057870664263426075 -0.6613460748392932 -0.11189634163478285 -0.7295386417697591 Q -0.16592201900613962 -0.7977312087002251 -0.24183817416510228 -0.8275303258999056 Q -0.31775432932406505 -0.8573294430995864 -0.398245126415069 -0.8445924268220266 Q -0.47873592350607297 -0.8318554105444669 -0.5477123130449351 -0.7772087483757382 Q -0.616688702583797 -0.7225620862070095 -0.6478926271892458 -0.646808768859071 Q -0.6790965517946945 -0.5710554515111326 -0.6674538505242169 -0.49033558092695473 Q -0.6558111492537393 -0.4096157103427769 -0.6017854718823825 -0.341423143412311 Q -0.5477597945110257 -0.2732305764818451 -0.4718436393520631 -0.24343145928216448 Q -0.3959274841931004 -0.21363234208248383 -0.31504477579789836 -0.22667985075872948 Q -0.2341620674026962 -0.2397273594349752 -0.1651856778638342 -0.29437402160370385 Q -0.09620928832497216 -0.34902068377243256 -0.0653972750237215 -0.4244635087216851 M 0.7112282960717011 -1.3968068515896048 L 0.8961136923667453 -0.7216643553439425 L 0.8556051425920055 -0.7105712315662398 L 0.2349575830826228 -1.170994522544278 L 0.3955437558646041 -0.5845850400909025 L 0.3463548025667058 -0.571114818360835 L 0.16146940627166156 -1.2462573146064975 L 0.20294244532675226 -1.2576145603789073 L 0.8226255155557841 -0.796927147406162 L 0.6620393427738027 -1.3833366298595373 L 0.7112282960717011 -1.3968068515896048 M 1.29277232942672 -0.7683658564858891 Q 1.2166751946268435 -0.8254664350753347 1.180341370539028 -0.912052249312747 Q 1.1440075464512123 -0.9986380635501593 1.1572745676331455 -1.097754087224226 Q 1.170541588815079 -1.1968701108982924 1.2283679872176265 -1.2708522550128682 Q 1.2861943856201743 -1.3448343991274436 1.3746298501192484 -1.37991172255488 Q 1.4630653146183228 -1.4149890459823165 1.5651548190026114 -1.401324014164925 Q 1.6672443233869 -1.3876589823475336 1.743407793292686 -1.3310539838764583 Q 1.819571263198472 -1.274448985405383 1.8559050872862874 -1.1878631711679708 Q 1.8922389113741032 -1.1012773569305585 1.8788392199803505 -1.0011701730197513 Q 1.865439528586598 -0.9010629891089439 1.8076131301840501 -0.8270808449943683 Q 1.7497867317815026 -0.7530987008797927 1.661417602388338 -0.7185169575707266 Q 1.5730484729951733 -0.6839352142616607 1.4709589686108848 -0.697600246079052 Q 1.3688694642265962 -0.7112652778964433 1.29277232942672 -0.7683658564858891 M 1.6400957546809327 -0.762736622996216 Q 1.7157749399622932 -0.79296344742667 1.7657657596019236 -0.8574007654322943 Q 1.815756579241554 -0.9218380834379186 1.827298887669836 -1.0080690240343566 Q 1.838841196098118 -1.0942999646307945 1.8075568763250136 -1.1696162400056043 Q 1.7762725565519093 -1.2449325153804138 1.7112069882160954 -1.293998509889213 Q 1.6461414198802813 -1.3430645043980123 1.5589193190471027 -1.3547394830381136 Q 1.471697218213924 -1.366414461678215 1.3955224528141932 -1.3362539723536706 Q 1.3193476874144623 -1.3060934830291264 1.269356867774832 -1.2416561650235023 Q 1.2193660481352016 -1.177218847017878 1.2078237397069196 -1.0909879064214398 Q 1.1962814312786376 -1.004756965825002 1.227565751051742 -0.9294406904501923 Q 1.2588500708248462 -0.8541244150753826 1.3244112192790305 -0.8049920854606737 Q 1.3899723677332148 -0.7558597558459647 1.4771944685663934 -0.7441847772058634 Q 1.564416569399572 -0.732509798565762 1.6400957546809327 -0.762736622996216 M 2.433620368948673 -1.0800492303097864 L 2.2094618360028493 -1.1951880687075056 L 2.230479243011957 -1.236105896149997 L 2.724161726285497 -0.9825263115835918 L 2.7031443192763893 -0.9416084841411001 L 2.4789857863305658 -1.0567473225388193 L 2.1801730866793423 -0.4750025584651343 L 2.1348076692974494 -0.49830446623610125 L 2.433620368948673 -1.0800492303097864 M 2.9680498112915075 -0.7892130605658363 L 3.0073551850341738 -0.7567155592011264 L 2.5613110486558037 -0.2172300372429609 L 2.5220056749131374 -0.24972753860767066 L 2.9680498112915075 -0.7892130605658363 M 2.87305272195868 0.030226558147216503 Q 2.8646575718330323 -0.06454037413597938 2.904771745205859 -0.14944092239460255 Q 2.9448859185786858 -0.23434147065322566 3.027474300279143 -0.2907255039259491 Q 3.1100626819796005 -0.34710953719867244 3.2037416869615143 -0.3535511228418612 Q 3.2974206919434286 -0.35999270848504994 3.382623037050501 -0.31766292714548683 Q 3.4678253821575744 -0.2753331458059237 3.5259009364284797 -0.19026711265445273 Q 3.5839764906993845 -0.10520107950298174 3.5927845827335347 -0.010716067386149442 Q 3.6015926747676845 0.0837689447306828 3.561478501394858 0.16866949298930595 Q 3.521364328022031 0.2535700412479291 3.4379500625045694 0.3105179148533797 Q 3.3545357969871077 0.3674657884588303 3.2608567920051934 0.3739073741020191 Q 3.1671777870232796 0.3803489597452078 3.082388383824709 0.3377372582392811 Q 2.997598980626138 0.2951255567333544 2.9395234263552332 0.2100595235818834 Q 2.881447872084328 0.12499349043041241 2.87305272195868 0.030226558147216503 M 3.101025931338261 0.2923209415383411 Q 3.1740939476420778 0.3284050792365763 3.2554362103827166 0.32251557227649386 Q 3.3367784731233554 0.3166260653164113 3.408630365202753 0.26757195636914194 Q 3.480482257282151 0.21851784742187258 3.5155896127391566 0.14490586746741518 Q 3.5506969681961627 0.07129388751295768 3.543699657252712 -0.009897476803456318 Q 3.5367023463092613 -0.09108884111987031 3.4870843970292644 -0.1637666170162727 Q 3.437466447749268 -0.2364443929126751 3.3641165112790876 -0.2729414725194127 Q 3.2907665748089077 -0.30943855212615023 3.209424312068269 -0.30354904516606773 Q 3.12808204932763 -0.29765953820598523 3.056230157248232 -0.24860542925871587 Q 2.984378265168834 -0.1995513203114465 2.9492709097118284 -0.12593934035698906 Q 2.9141635542548228 -0.052327360402531595 2.921442785364637 0.029276945822384715 Q 2.928722016474451 0.11088125204730098 2.978339965754448 0.18355902794370338 Q 3.0279579150344444 0.2562368038401058 3.101025931338261 0.2923209415383411 M 4.015850674000459 1.135940846656692 L 3.3292974109467606 1.2724861394731 L 3.321104693377776 1.231292943689878 L 3.8243793780395228 0.6448565943913204 L 3.2280588295585955 0.7634559344375718 L 3.2181105296534 0.7134356252722308 L 3.904663792707099 0.576890332455823 L 3.913051574980107 0.6190643186148359 L 3.409581825614337 1.2045198775376025 L 4.005902374095264 1.0859205374913512 L 4.015850674000459 1.135940846656692" fill="#ffffff" fill-rule="nonzero"></path></g><g clip-path="url(#SvgjsClipPath1004)"><g clip-path="url(#SvgjsClipPath1000fdce172f-c264-4597-bc9b-c7c8dd23d738)"><path d=" M 1.178784666829429 0.519237645583407 C 0.8247321793755992 0.5192223535374467 0.5361446453773863 0.8032539542901828 0.5305263920136448 1.1572618628674232 C 0.5303744453079331 1.1606940708082079 0.5321709916519378 1.223662573263497 0.5356836419663351 1.2509235998765034 C 0.544310112885467 1.3182240280168205 0.5635038028595256 1.3837413855897502 0.5925564001101256 1.4450578615271605 L 0.8544410164252378 2.1619692332001583 C 0.8564244940612924 2.1686465673388717 0.8601951298472036 2.174654859115766 0.8653454270704406 2.179344785900383 C 0.862156270668596 2.1880552644980282 0.8610452683565452 2.1973901324092004 0.8621009180014171 2.2066058125133896 L 0.8730768329787194 2.2579548610024793 C 0.8750757349837412 2.275408392613013 0.8898491655615873 2.2885860465927834 0.9074167884695952 2.2885855292656836 L 1.450116793023213 2.2885855292656836 C 1.467686283840729 2.288586537502309 1.4824625465991932 2.2754097869237877 1.484465686555601 2.2579548610024793 L 1.495432663491391 2.2066058125133896 C 1.4964883131362632 2.1973901324092004 1.495377310824212 2.1880552644980287 1.4921881544223676 2.179344785900383 C 1.4973384516456048 2.174654859115766 1.5011090874315158 2.1686465673388717 1.5030925650675704 2.1619692332001588 L 1.7649771813826827 1.4450578615271603 C 1.7940297786332828 1.38374138558975 1.813223468607341 1.31822402801682 1.8218499395264731 1.2509235998765034 C 1.8253625898408703 1.223662573263497 1.8271591361848751 1.160694070808208 1.8270071894791633 1.1572618628674227 C 1.8213939290399734 0.8032658257026425 1.5328252054981104 0.5192370739433732 1.1787846668294362 0.5192376455834071 Z M 1.0856234601450463 1.6159979054529803 C 1.064511806092613 1.4119781698895417 1.0448123625991486 1.277424892960951 1.027043536072376 1.1879461593797023 L 1.3409475539900122 1.1879461593797023 C 1.323169789421727 1.277424892960951 1.3034792839697749 1.4119781698895417 1.2823676299173414 1.6159979054529803 C 1.2582349178336965 1.848932205309231 1.242834672307726 2.0754847435255845 1.2394650306575279 2.127128747384585 L 1.1285528735293973 2.127128747384585 C 1.1251564177546622 2.0754132391934843 1.109729358104154 1.8488875151016686 1.0856234601450463 1.6159979054529803 Z M 1.759900373803605 1.2429598048889006 C 1.7521147774190233 1.303742399450419 1.7347789350574165 1.3629141210034517 1.70853344923149 1.4182884271973402 L 1.7072999995027711 1.420898335318978 L 1.7063078768948878 1.4235797477727161 L 1.449321307328604 2.1270036148034106 L 1.2863986866394617 2.1270036148034106 C 1.3051685738156302 1.8345866486817308 1.3441920630590358 1.4102263137530993 1.3886409435005052 1.187821026798528 L 1.4724172065968035 1.187821026798528 C 1.545494634002686 1.187821026798528 1.5681436311952628 1.1472780704980041 1.5751421176995197 1.1231185442898215 C 1.5891837809155962 1.0746743592922818 1.5642108929297796 1.014423021456781 1.5333657116702761 0.9949112768350784 C 1.4891849724741806 0.9669888351501498 1.4401330006537936 0.9730130751295486 1.4021195101012964 1.0109997515575087 C 1.3884889967947929 1.0246392029055242 1.3711581343021308 1.0544475713495822 1.351002850691531 1.1409320610241567 L 1.016988239370857 1.1409320610241567 C 0.9968240177187444 1.0544475713495822 0.9795110313091072 1.0246392029055245 0.9658626419195789 1.0109997515575087 C 0.927858089408594 0.9729773229634987 0.8787882415051822 0.9669709590671248 0.8346164403505991 0.9949112768350784 C 0.8037712590910957 1.014423021456781 0.778798371105279 1.0746654212507696 0.7928400343213555 1.1231185442898215 C 0.7998385208256127 1.1472512563734667 0.8224875180181894 1.187821026798528 0.8955649454240718 1.187821026798528 L 0.9793501465618827 1.187821026798528 C 1.0237990270033521 1.4102263137530995 1.0628493303712951 1.8345866486817308 1.0815834653814136 2.1270036148034106 L 0.908256964371767 2.1270036148034106 L 0.6512614567639708 1.4235797477727163 L 0.6502693341560876 1.4208983353189781 L 0.6490358844273678 1.4182884271973393 C 0.622786859382323 1.3629060487091926 0.6054509162479457 1.3037249336311778 0.5976689598552538 1.242932990764364 C 0.5948624148203407 1.2211867357645456 0.5930837445593609 1.1668613194518065 0.5930211782687738 1.158245047433794 L 0.5930211782687738 1.158245047433794 C 0.5980203915115332 0.8383051635384806 0.8588057277725015 0.5815628883593357 1.1787846668294273 0.5815628883593346 C 1.4987636058863532 0.5815628883593333 1.7595489421473232 0.8383051635384766 1.7645481553900848 1.158245047433794 L 1.7645481553900848 1.158245047433794 C 1.7644855890994977 1.1668613194518063 1.7627069188385176 1.221186735764545 1.759900373803605 1.2429598048889006 Z M 1.3988034967001735 1.1410661316468431 C 1.4107447201608216 1.0908611524713487 1.4229898370328933 1.0565390730634978 1.43525282998799 1.044276080108401 C 1.457928641305104 1.0215823927082621 1.48249931742286 1.0183557597222637 1.5082945052278227 1.0346498093994803 C 1.5208077633452686 1.042533162013471 1.5383799529587674 1.0816281555889762 1.5301033265182282 1.1101941362628023 C 1.52789563026465 1.1178272237144442 1.5211652850057669 1.1410661316468431 1.4723993305137788 1.1410661316468431 Z M 0.9691518411961649 1.1410661316468431 L 0.8955917595486094 1.1410661316468431 C 0.8468258050566212 1.1410661316468431 0.8400954597977379 1.1178272237144442 0.8378877635441601 1.1101851982212898 C 0.8296111371036209 1.0816281555889764 0.8472190788831695 1.042533162013471 0.8596965848345652 1.0346498093994803 C 0.8827349757514246 1.0179327219182752 0.9148258627699448 1.022161510040011 0.9327471981159104 1.044276080108401 C 0.9449833769464698 1.0564765067729107 0.9572642459845914 1.090825400305299 0.9691697172791898 1.1410303794807934 Z" fill="#ffffff" transform="matrix(1,0,0,1,0,0)" fill-rule="nonzero"></path></g><g clip-path="url(#SvgjsClipPath1000fdce172f-c264-4597-bc9b-c7c8dd23d738)"><path d=" M 1.4301938984919371 2.329039105151083 C 1.429398412797328 2.329039105151083 1.4285939890612065 2.329039105151083 1.427789565325085 2.3291195475246953 L 0.9256950833625786 2.346512976307945 C 0.9085292364422118 2.347754695573158 0.8952362429356822 2.362042323276919 0.8952342378881111 2.3792530223680903 L 0.8952342378881111 2.408694931110137 C 0.8952391505984751 2.4259166536389247 0.9091884210967942 2.4398819210070744 0.926410126683583 2.439906572071652 C 0.9271698602121347 2.439906572071652 0.9279295937406938 2.439906572071652 0.9286982653107655 2.4398261296980395 L 1.4340193802592704 2.422209249876978 C 1.4503408522143726 2.4210283327098328 1.4629791251805897 2.407442189271149 1.4629786347596447 2.391078051289076 L 1.4629786347596447 2.3618774696678653 C 1.4629835840917844 2.343760226922638 1.448311125127658 2.3290637672077312 1.430193898491961 2.329039105151083 Z" fill="#ffffff" transform="matrix(1,0,0,1,0,0)" fill-rule="nonzero"></path></g><g clip-path="url(#SvgjsClipPath1000fdce172f-c264-4597-bc9b-c7c8dd23d738)"><path d=" M 1.4080543696655707 2.4633242408342997 C 1.4072499459294492 2.4633242408342997 1.4064544602348403 2.4633242408342997 1.405641098457206 2.463413621249424 L 0.9478346121889449 2.480807050032674 C 0.9306702717485952 2.482049000128951 0.9173800113294286 2.496337882992293 0.9173827047559897 2.513547096092819 L 0.9173827047559897 2.542980066793354 C 0.9173826793489426 2.5602017950173153 0.9313279526925196 2.5741710636693695 0.9485496555097499 2.57420064579638 C 0.9493093890385009 2.5742006457963806 0.9500780606085726 2.5742006457963806 0.9508467321786443 2.5741112653812563 L 1.411879851432904 2.5564854475186833 C 1.4282013233880062 2.555304530351537 1.4408395963542233 2.5417183869128537 1.4408391059332784 2.52535424893078 L 1.4408391059332784 2.49615366730957 C 1.4408391227180581 2.478039914006506 1.4261681061908018 2.463348898817427 1.4080543696682908 2.4633242408343032 Z" fill="#ffffff" transform="matrix(1,0,0,1,0,0)" fill-rule="nonzero"></path></g><g clip-path="url(#SvgjsClipPath1000fdce172f-c264-4597-bc9b-c7c8dd23d738)"><path d=" M 1.3859059027976919 2.5976540667250783 C 1.3851133964502536 2.5976540667250783 1.384308972714132 2.5976808808496155 1.3834926315893272 2.597734509098691 L 0.9699830790568235 2.6151368759234526 C 0.9528166146399875 2.6163698944238725 0.9395202029908124 2.630657294499952 0.9395222335823558 2.6478679839420853 L 0.9395222335823558 2.677309892684132 C 0.9395271462927199 2.6945316152129206 0.9534764167910391 2.70849688258107 0.9706981223778278 2.7085215336456474 C 0.9714578559063795 2.708521533645647 0.9722175894349386 2.708521533645647 0.9729862610050103 2.708441091272035 L 1.389731384565025 2.690815273409461 C 1.4060528565201271 2.689634356242316 1.4186911294863442 2.6760482128036327 1.4186906390653993 2.659684074821559 L 1.4186906390653993 2.6304656171173235 C 1.4186807964448809 2.6123588432821547 1.4040126625348452 2.5976787125341363 1.3859059027976885 2.597654066725079 Z" fill="#ffffff" transform="matrix(1,0,0,1,0,0)" fill-rule="nonzero"></path></g><g clip-path="url(#SvgjsClipPath1000fdce172f-c264-4597-bc9b-c7c8dd23d738)"><path d=" M 1.2851116086616672 2.7547043941405334 L 1.071814186008294 2.7547043941405334 C 1.0667543132313961 2.7547028727384197 1.062116302312807 2.7575243259564064 1.0597912201216901 2.762018356178557 C 1.057466137930573 2.7665123864007084 1.0578424673420783 2.7719281153189863 1.0607667666988918 2.7760573753138034 L 1.077981434651892 2.80034203410316 C 1.0854711071043504 2.81091407642716 1.0976222661721555 2.8171978949086185 1.1105784720478378 2.817199180395663 L 1.2463473226221233 2.817199180395663 C 1.2593035284978058 2.8171978949086185 1.271454687565611 2.81091407642716 1.2789443600180692 2.800342034103161 L 1.2961590279710693 2.7760573753138034 C 1.2990833273278828 2.7719281153189863 1.2994596567393881 2.7665123864007084 1.297134574548271 2.762018356178557 C 1.294809492357154 2.7575243259564064 1.2901714814385652 2.7547028727384197 1.2851116086616672 2.7547043941405334 Z" fill="#ffffff" transform="matrix(1,0,0,1,0,0)" fill-rule="nonzero"></path></g><g clip-path="url(#SvgjsClipPath1000fdce172f-c264-4597-bc9b-c7c8dd23d738)"><path d=" M 1.971919656520696 1.1488422277626844 L 2.3331863564128645 1.1488422277626844 C 2.352408481775545 1.1488422277626844 2.3679910900623886 1.1644248360495277 2.3679910900623886 1.1836469614122083 L 2.3679910900623886 1.1843441286501801 C 2.3679910900623886 1.2035662540128607 2.352408481775545 1.2191488622997038 2.3331863564128645 1.2191488622997038 L 1.971919656520696 1.2191488622997038 C 1.9526975311580157 1.2191488622997038 1.9371149228711728 1.2035662540128607 1.9371149228711728 1.1843441286501801 L 1.9371149228711728 1.1836469614122083 C 1.9371149228711728 1.1644248360495277 1.9526975311580157 1.1488422277626844 1.971919656520696 1.1488422277626844 Z" fill="#ffffff" transform="matrix(1,0,0,1,0,0)" fill-rule="nonzero"></path></g><g clip-path="url(#SvgjsClipPath1000fdce172f-c264-4597-bc9b-c7c8dd23d738)"><path d=" M 2.1155539836259476 1.5339645604516117 L 1.9249949385802752 1.455032715855067 C 1.9164687585346611 1.4514947345942208 1.9068857861205881 1.4514916190316873 1.8983573073801794 1.4550240555770073 C 1.88982882863977 1.4585564921223273 1.8830546094389997 1.4653346426234246 1.8795271214063853 1.473865169321823 L 1.879250042119499 1.4745176463522325 C 1.8718991546397872 1.4922761436578322 1.8803342064776842 1.5126315083159834 1.8980914336277672 1.5199854635261225 L 2.0886504786734394 1.5989173081226669 C 2.097175944306169 1.6024627188880118 2.106761872216206 1.6024695396738085 2.1152923746276358 1.5989362649380343 C 2.1238228770390646 1.5954029902022604 2.130596566267575 1.5886201298428606 2.1341182958473297 1.5800848546559112 L 2.1343864370927026 1.5794413156670142 C 2.137919805434977 1.5709133952952552 2.1379206960791737 1.5613311207274139 2.134388913088096 1.5528025436706494 C 2.1308571300970183 1.5442739666138845 2.124081987999745 1.5374977260449183 2.1155539836259476 1.5339645604516114 Z" fill="#ffffff" transform="matrix(1,0,0,1,0,0)" fill-rule="nonzero"></path></g><g clip-path="url(#SvgjsClipPath1000fdce172f-c264-4597-bc9b-c7c8dd23d738)"><path d=" M 1.8825392413960846 0.8921059233587498 L 1.8828073826414584 0.8927584003891593 C 1.886330964425798 0.9012943122271426 1.8931063230625003 0.9080772934757371 1.9016382675315056 0.9116104709514041 C 1.910170212000511 0.9151436484270714 1.9197574049919977 0.9151365901895999 1.9282841378568607 0.9115908538559151 L 2.118843182902533 0.8326590092593704 C 2.1365969195219 0.8253015641044997 2.1450275466018014 0.8049472214583397 2.137675636369289 0.7871911920854804 L 2.1374074951239153 0.7865387150550708 C 2.133880007091301 0.7780081883566725 2.1271057878905304 0.7712300378555752 2.1185773091501208 0.7676976013102552 C 2.110048830409712 0.7641651647649352 2.1004658579956392 0.7641682803274686 2.091939677950025 0.7677062615883151 L 1.9013716948628405 0.8466381061848598 C 1.883617958243474 0.8539955513397306 1.8751873311635725 0.8743498939858905 1.8825392413960846 0.8921059233587499 Z" fill="#ffffff" transform="matrix(1,0,0,1,0,0)" fill-rule="nonzero"></path></g><g clip-path="url(#SvgjsClipPath1000fdce172f-c264-4597-bc9b-c7c8dd23d738)"><path d=" M 1.47331101074805 0.4786053088677584 L 1.473954549736947 0.4788734501131322 C 1.4824853917107546 0.48243041272013437 1.492081593331155 0.48244337217744915 1.5006220113686823 0.4789094639282209 C 1.5091624294062098 0.4753755556789927 1.5159437594426894 0.4685857974783459 1.5194670571183992 0.4600409966463766 L 1.5983989017149438 0.2694819516007044 C 1.6057508119474562 0.251725922227845 1.5973201848675544 0.23137157958168503 1.5795664482481881 0.22401413442681434 L 1.5789139712177784 0.22374599318144053 C 1.5703885055850493 0.22020058241609564 1.560802577675012 0.2201937616302992 1.5522720752635824 0.22372703636607316 C 1.5437415728521529 0.22726031110184713 1.5369678836236422 0.23404317146124695 1.5334461540438886 0.24257844664819622 L 1.454514309447344 0.4331374916938684 C 1.4471529615586776 0.45088365081893805 1.455567456207314 0.47123768518775133 1.47331101074805 0.4786053088677584 Z" fill="#ffffff" transform="matrix(1,0,0,1,0,0)" fill-rule="nonzero"></path></g><g clip-path="url(#SvgjsClipPath1000fdce172f-c264-4597-bc9b-c7c8dd23d738)"><path d=" M 0.8460750095695745 0.456733921286766 C 0.8495985913539139 0.46526983312474934 0.8563739499906164 0.4720528143733438 0.8649058944596218 0.4755859918490109 C 0.8734378389286273 0.479119169324678 0.8830250319201136 0.47911211108720664 0.8915517647849769 0.4755663747535217 L 0.8921953037738741 0.4752982335081478 C 0.909952530923957 0.4679442782980086 0.9183875827618542 0.44758891363985737 0.9110366952821423 0.4298304163342578 L 0.832131664810135 0.2392892473716105 C 0.8286080830257955 0.2307533355336272 0.8218327243890929 0.22397035428503273 0.8133007799200876 0.2204371768093656 C 0.8047688354510822 0.2169039993336985 0.7951816424595959 0.21691105757116982 0.7866549095947326 0.22045679390485484 L 0.7860113706058354 0.22072493515022867 C 0.7774823916797627 0.22425454929365363 0.7707053421734728 0.2310284074613482 0.7671717111470506 0.23955572294114386 C 0.7636380801206285 0.24808303842093957 0.7636374570634483 0.25766497737391497 0.7671699790975672 0.26619275232411865 Z" fill="#ffffff" transform="matrix(1,0,0,1,0,0)" fill-rule="nonzero"></path></g><g clip-path="url(#SvgjsClipPath1000fdce172f-c264-4597-bc9b-c7c8dd23d738)"><path d=" M 0.4594779000310913 0.8387011253217942 L 0.2689188549854191 0.7597335285591997 C 0.2603881854729758 0.7561976074078046 0.25080148062559565 0.7561995877528598 0.24227227268593243 0.759739032997725 C 0.23374306474626924 0.76327847824259 0.22697170391746987 0.7700647575087822 0.22345103781152917 0.7786017341920053 L 0.22318289656615528 0.7792542112224149 C 0.21583098633364298 0.7970102405952741 0.2242616134135445 0.8173645832414341 0.24201535003291097 0.8247220283963048 L 0.43260120920312056 0.9036359969098247 C 0.4503350381795351 0.9109885194428993 0.4706730838729706 0.902589326531156 0.47805115029398565 0.8848661097336561 L 0.4783192915393595 0.8842136327032466 C 0.48186581781851057 0.8756807082104349 0.4818725529171024 0.8660875199164528 0.4783380115646408 0.8575496240119297 C 0.47480347021217906 0.8490117281074065 0.46801797132934375 0.842230407298273 0.4594779000310913 0.8387011253217942 Z" fill="#ffffff" transform="matrix(1,0,0,1,0,0)" fill-rule="nonzero"></path></g><g clip-path="url(#SvgjsClipPath1000fdce172f-c264-4597-bc9b-c7c8dd23d738)"><path d=" M 0.47476195101739993 1.465928188458757 C 0.4712306983122609 1.4573986047724143 0.4644546338897324 1.4506218980100627 0.45592538497240154 1.4470898367937073 C 0.44739613605507056 1.443557775577352 0.43781287987048934 1.4435598973320032 0.4292851958019974 1.4470957349920013 L 0.23872615075632525 1.5260275795885458 C 0.22099009537238018 1.53340762157227 0.21256779977952933 1.5537458465254856 0.21989369728956956 1.5715043348039481 L 0.2201618385349434 1.5721478737928456 C 0.22368712654237427 1.580682173438547 0.23046320009315058 1.5874631221836024 0.238994962098469 1.590994547258917 C 0.24752672410378734 1.594525972334232 0.2571129835006387 1.59451764017481 0.2656385937503459 1.590971389218089 L 0.4561976387960181 1.5120395446215444 C 0.47395137541538457 1.5046820994666736 0.482382002495286 1.4843277568205135 0.4750300922627737 1.4665717274476546 Z" fill="#ffffff" transform="matrix(1,0,0,1,0,0)" fill-rule="nonzero"></path></g><g clip-path="url(#SvgjsClipPath1000fdce172f-c264-4597-bc9b-c7c8dd23d738)"><path d=" M 1.7167743235059796 0.651708358839594 C 1.7303786943186585 0.6652712236100479 1.7523917473024244 0.6652712236100479 1.7659961181151034 0.651708358839594 L 2.021454282582756 0.3962501943719412 C 2.03501714735321 0.38264582355926224 2.03501714735321 0.3606327705754964 2.021454282582756 0.3470283997628175 L 2.020953752258058 0.3465368074796321 C 2.014429268777002 0.3400078627426503 2.005577492124029 0.3363395645190154 1.9963473239742522 0.3363395645190154 C 1.9871171558244765 0.3363395645190154 1.9782653791715032 0.3400078627426503 1.9717408956904472 0.3465368074796321 L 1.7162827312227944 0.601994971947285 C 1.7097537864858126 0.6085194554283413 1.7060854882621777 0.6173712320813146 1.7060854882621777 0.6266014002310907 C 1.7060854882621777 0.6358315683808667 1.7097537864858126 0.64468334503384 1.7162827312227944 0.6512078285148962 Z" fill="#ffffff" transform="matrix(1,0,0,1,0,0)" fill-rule="nonzero"></path></g><g clip-path="url(#SvgjsClipPath1000fdce172f-c264-4597-bc9b-c7c8dd23d738)"><path d=" M 1.183646961412208 0 L 1.18434412865018 0 C 1.2035662540128604 0 1.2191488622997035 0.015582608286843283 1.2191488622997035 0.03480473364952381 L 1.2191488622997035 0.396071433541692 C 1.2191488622997035 0.41529355890437253 1.2035662540128604 0.4308761671912158 1.18434412865018 0.4308761671912158 L 1.183646961412208 0.4308761671912158 C 1.1644248360495275 0.4308761671912158 1.1488422277626842 0.41529355890437253 1.1488422277626842 0.396071433541692 L 1.1488422277626842 0.03480473364952381 C 1.1488422277626842 0.015582608286843283 1.1644248360495275 0 1.183646961412208 0 Z" fill="#ffffff" transform="matrix(1,0,0,1,0,0)" fill-rule="nonzero"></path></g><g clip-path="url(#SvgjsClipPath1000fdce172f-c264-4597-bc9b-c7c8dd23d738)"><path d=" M 0.6019949719472848 0.651708358839594 C 0.6155860965450166 0.6652948072395769 0.6376167039171641 0.6652948072395769 0.651207828514896 0.651708358839594 L 0.6517083588395939 0.6512078285148962 C 0.6652948072395767 0.6376167039171643 0.6652948072395767 0.6155860965450168 0.6517083588395939 0.601994971947285 L 0.396250194371941 0.3465368074796321 C 0.3897241847153109 0.3400073195466981 0.38087092827235913 0.33633879888303336 0.3716392970673791 0.33633879888303336 C 0.3624076658623991 0.33633879888303336 0.3535544094194473 0.3400073195466981 0.34702839976281724 0.3465368074796321 L 0.34653680747963195 0.3470283997628175 C 0.340009510554533 0.3535555724989076 0.33634250288525885 0.3624083930447408 0.33634250288525885 0.3716392970673793 C 0.33634250288525885 0.3808702010900178 0.340009510554533 0.389723021635851 0.34653680747963195 0.39625019437194114 Z" fill="#ffffff" transform="matrix(1,0,0,1,0,0)" fill-rule="nonzero"></path></g><g clip-path="url(#SvgjsClipPath1000fdce172f-c264-4597-bc9b-c7c8dd23d738)"><path d=" M 0.0348047336495236 1.1488422277626844 L 0.3960714335416918 1.1488422277626844 C 0.4152935589043723 1.1488422277626844 0.4308761671912156 1.1644248360495277 0.4308761671912156 1.1836469614122083 L 0.4308761671912156 1.1843441286501801 C 0.4308761671912156 1.2035662540128607 0.4152935589043723 1.2191488622997038 0.3960714335416918 1.2191488622997038 L 0.0348047336495236 1.2191488622997038 C 0.015582608286843073 1.2191488622997038 -2.1031985842355891e-16 1.2035662540128607 -2.1031985842355891e-16 1.1843441286501801 L -2.1031985842355891e-16 1.1836469614122083 C -2.1031985842355891e-16 1.1644248360495277 0.015582608286843073 1.1488422277626844 0.0348047336495236 1.1488422277626844 Z" fill="#ffffff" transform="matrix(1,0,0,1,0,0)" fill-rule="nonzero"></path></g></g><g transform="matrix(-0.39072684918437944,-0.9205066698978597,0.9205066698978597,-0.39072684918437944,-3.620092902682678,1.870383235439547)"><g clip-path="url(#SvgjsClipPath1005)"><path d=" M -1.1910534965073367 2.2308317553553305 C -1.1367293568521644 2.2308317553553305 -1.0917312732314748 2.185929940700158 -1.0917312732314748 2.1315095320794684 C -1.0917312732314748 2.0771856112173994 -1.1367293568521644 2.032187636993261 -1.1910534965073367 2.032187636993261 C -1.2454740145245782 2.032187636993261 -1.2903757197831989 2.0771856112173994 -1.2903757197831989 2.1315095320794684 C -1.2903757197831989 2.185929940700158 -1.2453778549556127 2.2308317553553305 -1.1910534965073367 2.2308317553553305 Z M -1.1910534965073367 2.211314316562227 L -1.1910534965073367 2.051802110527744 C -1.146920739610785 2.051802110527744 -1.1113460749556126 2.0872816001829166 -1.1112498059900955 2.1315095320794684 C -1.1112498059900955 2.1757385579415374 -1.1468244706452677 2.211314316562227 -1.1910534965073367 2.211314316562227 Z" fill="#ffffff" transform="matrix(1,0,0,1,0,0)" fill-rule="nonzero"></path></g></g><g transform="matrix(0.39072684918437944,-0.9205066698978597,-0.9205066698978597,-0.39072684918437944,4.132093135427605,6.24288020358102)"><g clip-path="url(#SvgjsClipPath1006)"><path d=" M 3.5590445865697253 2.2308317553553305 C 3.613368726224898 2.2308317553553305 3.6583668098455875 2.185929940700158 3.6583668098455875 2.1315095320794684 C 3.6583668098455875 2.0771856112173994 3.613368726224898 2.032187636993261 3.5590445865697253 2.032187636993261 C 3.5046240685524843 2.032187636993261 3.4597223632938636 2.0771856112173994 3.4597223632938636 2.1315095320794684 C 3.4597223632938636 2.185929940700158 3.5047202281214496 2.2308317553553305 3.5590445865697253 2.2308317553553305 Z M 3.5590445865697253 2.211314316562227 L 3.5590445865697253 2.051802110527744 C 3.6031773434662773 2.051802110527744 3.6387520081214495 2.0872816001829166 3.638848277086967 2.1315095320794684 C 3.638848277086967 2.1757385579415374 3.6032736124317943 2.211314316562227 3.5590445865697253 2.211314316562227 Z" fill="#ffffff" transform="matrix(1,0,0,1,0,0)" fill-rule="nonzero"></path></g></g></g><defs><clipPath id="SvgjsClipPath1004"><path d=" M 0 0 h 2.3679910900623886 v 2.8171723662711248 h -2.3679910900623886 Z"></path></clipPath><clipPath id="SvgjsClipPath1000fdce172f-c264-4597-bc9b-c7c8dd23d738"><path d=" M -2.1031985842355891e-16 0 L 2.3679910900623886 0 L 2.3679910900623886 2.8171723662711248 L -4.2063971684711783e-16 2.8171723662711248 Z"></path></clipPath><clipPath id="SvgjsClipPath1005"><path d=" M -1.34420866892113 1.9746162794932614 h 0.3063103448275862 v 0.31725 h -0.3063103448275862 Z"></path></clipPath><clipPath id="SvgjsClipPath1006"><path d=" M 3.4058894141559324 1.9746162794932614 h 0.3063103448275862 v 0.31725 h -0.3063103448275862 Z"></path></clipPath></defs></svg>